# xmcd
# 
# Track frame offsets:
#     150
#     15615
#     36684
#     54150
#     71377
# 
# Disc length: 1298
# 
# Revision: 0
# Processed by: cddbd v1.5.2PL0 Copyright (c) Steve Scherf et al.
# Submitted via: fre:ac v1.0.31
# 
DISCID=3b051005
DTITLE=Kenna Danielle - Like A Tumbleweed
DYEAR=0
DGENRE=Country
TTITLE0=I-35 Reasons
TTITLE1=Meeting Mr. Bojangles
TTITLE2=Black and Blue
TTITLE3=A Cross
TTITLE4=Playin' with Lightning
EXTD=
EXTT0=
EXTT1=
EXTT2=
EXTT3=
EXTT4=
PLAYORDER=
